<svg id="Calque_1" data-name="Calque 1" xmlns="http://www.w3.org/2000/svg" viewBox="0 0 365.04 494.84"><defs><style>.cls-1{fill:#f6a11a;}.cls-2{fill:#fbe273;}.cls-3{fill:#e41d20;}</style></defs><title>frite</title><path class="cls-1" d="M88.22,331.73,106,475.53h55.34L134.39,303.4s-3.67-9.48-14.07-2.45-29.65,20.18-29.65,20.18S85.77,326.74,88.22,331.73Z" transform="translate(-87.54 -204.93)"/><polygon class="cls-2" points="27.89 266.32 66.42 266.32 39.82 101.22 11.38 120.48 27.89 266.32"/><path class="cls-1" d="M169,297.6l17.73,260.2H242.1L215.19,246.34s-3.67-17.15-14.06-4.43-29.66,36.51-29.66,36.51S166.58,288.57,169,297.6Z" transform="translate(-87.54 -204.93)"/><polygon class="cls-2" points="108.7 345.12 147.22 345.12 120.63 46.39 92.19 81.24 108.7 345.12"/><path class="cls-1" d="M305.33,358.75l13.82,173.93h43.11l-21-208.2s-2.86-11.46-11-3-23.1,24.41-23.1,24.41S303.43,352.71,305.33,358.75Z" transform="translate(-87.54 -204.93)"/><polygon class="cls-2" points="239 322.57 269 322.57 248.28 122.88 226.13 146.18 239 322.57"/><path class="cls-1" d="M445.64,343,427.91,486.8H372.57l26.91-172.12s3.67-9.48,14.06-2.45,29.66,20.18,29.66,20.18S448.09,338,445.64,343Z" transform="translate(-87.54 -204.93)"/><polygon class="cls-2" points="330.9 277.59 292.38 277.59 318.98 112.5 347.41 131.76 330.9 277.59"/><path class="cls-1" d="M204.54,333.49,186.8,477.28H131.46l26.91-172.12s3.67-9.48,14.06-2.45,29.66,20.18,29.66,20.18S207,328.49,204.54,333.49Z" transform="translate(-87.54 -204.93)"/><polygon class="cls-2" points="89.79 268.07 51.27 268.07 77.87 102.98 106.3 122.24 89.79 268.07"/><path class="cls-1" d="M285.51,302.77l-17.73,255H212.44l26.9-305.25s3.67-16.81,14.07-4.34S283.06,284,283.06,284,288,293.92,285.51,302.77Z" transform="translate(-87.54 -204.93)"/><polygon class="cls-2" points="170.76 345.26 132.24 345.26 158.84 52.48 187.27 86.64 170.76 345.26"/><path class="cls-1" d="M347.47,365.71s1-13.6,10.67-14.5,29.91,0,29.91,0,7.74,0,8.1,14.5,0,115.16,0,115.16-.21,14.51-8.66,12.69-40,.16-40,.16Z" transform="translate(-87.54 -204.93)"/><rect class="cls-2" x="269.56" y="155.67" width="31.64" height="124.45"/><path class="cls-1" d="M265.55,241.39s1.16-33.26,11.85-35.47,33.24,0,33.24,0,8.6,0,9,35.47,0,281.61,0,281.61-.23,35.48-9.62,31-44.47.39-44.47.39Z" transform="translate(-87.54 -204.93)"/><rect class="cls-2" x="188.71" y="13.27" width="35.16" height="314.34"/><path class="cls-3" d="M88.45,431.49q34.86,127.72,69.71,255.44L188,699.77a168.37,168.37,0,0,1,167.39-.46L382,687.39l70.62-260.94L381,426c-12.69,53-60.91,89.79-114.19,88-50.81-1.65-95-38-106.86-88.51H87.54Z" transform="translate(-87.54 -204.93)"/></svg>