<?xml version="1.0" encoding="utf-8"?>
<!-- Generator: Adobe Illustrator 24.0.0, SVG Export Plug-In . SVG Version: 6.00 Build 0)  -->
<svg version="1.1" id="Calque_1" xmlns="http://www.w3.org/2000/svg" xmlns:xlink="http://www.w3.org/1999/xlink" x="0px" y="0px"
	 viewBox="0 0 145.51 59.32" style="enable-background:new 0 0 145.51 59.32;" xml:space="preserve">
<style type="text/css">
	.st0{fill:#F7CB42;}
	.st1{fill:#491E0E;}
	.st2{fill:#FAE926;}
	.st3{fill:#68B42E;}
	.st4{fill:#FFFFFF;stroke:#F7CB42;stroke-miterlimit:10;}
</style>
<path class="st0" d="M350.47,53.16h145.7l-0.57,16.18c0,0,0.59,8.58-8.28,10.1c-8.87,1.52-126.3,0-126.3,0s-10.56-1.54-10.56-9.49
	S350.47,53.16,350.47,53.16z"/>
<path class="st1" d="M26.75,296.58h93.86l19.87,13.24l19.87-13.24h15.29c0,0,4.56,1.15,4.56,4.2c0,3.06,0,18.04,0,18.04
	s-0.02,2.96-3.67,4.23c-3.65,1.27-149.79,0-149.79,0s-2.88,0.05-4.81-3.92v-17.12C21.94,302.01,21.24,296.58,26.75,296.58z"/>
<path class="st2" d="M438.75,300.07c0,0,4.28-0.39,6.38,1.44c2.1,1.83-2.49-3.2,13.72,9.71c0,0,3.06,4.51,13.76,0
	c0,0,1.22-3.31,9.17-8.49c0,0,7.47-6.11,20.55,0.31l7.27,7.08c0,0,8.56,7.69,16.82,0l8.56-7.38c0,0,9.78-6.42,20.18,1.22l6.73,6.16
	c0,0,8.25,7.08,18.34,0l7.64-7.08c0,0,4.54-3.49,9.15-2.97v6.71c0,0-3.65-0.21-9.76,4.45l-5.81,5.58c0,0-10.7,8.56-22.62-1.53
	l-6.73-5.17c0,0-7.34-8.53-16.2,0l-8.87,7.61c0,0-7.95,6.11-19.57-0.92l-7.03-5.58c0,0-6.11-9.65-16.82-1.12l-7.95,6.7
	c0,0-11.31,7.03-22.01-0.92l-6.73-5.78c0,0-4.11-3.7-8.17-3.39V300.07z"/>
<path class="st3" d="M658.22,177.51c0,0,4.28-0.27,6.38,0.99c2.1,1.25-2.49-2.19,13.72,6.64c0,0,3.06,3.08,13.76,0
	c0,0,1.22-2.26,9.17-5.8c0,0,7.47-4.18,20.55,0.21l7.27,4.84c0,0,8.56,5.26,16.82,0l8.56-5.05c0,0,9.78-4.39,20.18,0.84l6.73,4.21
	c0,0,8.25,4.84,18.34,0l7.64-4.84c0,0,4.54-2.39,9.15-2.03v4.58c0,0-3.65-0.15-9.76,3.04l-5.81,3.81c0,0-10.7,5.85-22.62-1.04
	l-6.73-3.53c0,0-7.34-5.83-16.2,0l-8.87,5.2c0,0-7.95,4.18-19.57-0.63l-7.03-3.81c0,0-6.11-6.6-16.82-0.77l-7.95,4.58
	c0,0-11.31,4.81-22.01-0.63l-6.73-3.95c0,0-4.11-2.53-8.17-2.32V177.51z"/>
<path class="st0" d="M0,59.32l0.38-6.44c0,0-2.87-47.99,58.28-52.89h27.21c0,0,44.94,2.96,54.73,32.4c0,0,6.16,12.26,4.91,26.92H0z"
	/>
<path class="st4" d="M5.89,53.16h131.78c0,0,4.89-37.3-48.61-44.64H60.01c0,0-43.72-1.83-52.89,38.83L5.89,53.16z"/>
<path class="st4" d="M356.95,60.17v7.64c0,0,3.2,6.11,5.89,5.2l121.92,0.09c0,0,5.5-1.32,4.89-4.99l0.05-7.95H356.95z"/>
<circle class="st1" cx="33.71" cy="27.7" r="3.13"/>
<circle class="st1" cx="83.32" cy="33.96" r="3.13"/>
<circle class="st1" cx="52.9" cy="40.17" r="3.13"/>
<circle class="st1" cx="63.99" cy="18.33" r="3.13"/>
<circle class="st1" cx="111.3" cy="43.3" r="3.13"/>
<circle class="st1" cx="23.09" cy="43.3" r="3.13"/>
<circle class="st1" cx="104.18" cy="23.51" r="3.13"/>
</svg>
